<?xml version="1.0" encoding="utf-8"?>
<!-- Generator: Adobe Illustrator 19.0.0, SVG Export Plug-In . SVG Version: 6.00 Build 0)  -->
<svg version="1.1" id="Capa_1" xmlns="http://www.w3.org/2000/svg" xmlns:xlink="http://www.w3.org/1999/xlink" x="0px" y="0px"
	 viewBox="0 0 453.5 140" style="enable-background:new 0 0 453.5 140;" xml:space="preserve">
<style type="text/css">
	.st0{fill:#010101;}
	.st1{fill:#010002;}
</style>
<g id="XMLID_17_">
	<g id="XMLID_6_">
		<path id="XMLID_8_" class="st0" d="M453.5-208.5v193.8H0v-193.8l140.1-86.7L453.5-208.5z M437-31.2v-158.4L156.8-31.2H437z
			 M148.4-45.3L422-200l-273.6-75.7V-45.3z M131.9-54.8v-215.7L17.3-199.7L131.9-54.8z M129.7-31.2L16.6-174.4v143.2H129.7z"/>
	</g>
	<g id="XMLID_7_">
	</g>
</g>
<g id="XMLID_18_">
	<path id="XMLID_58_" class="st1" d="M57.2,100.7H40.7c-0.5-2.3-0.8-5.3-0.8-9c-2.9,4.1-5.8,6.8-8.6,8.2s-6.1,2-9.8,2
		c-5.4,0-9.7-1.5-13.1-4.4c-3.3-2.9-5-6.9-5-11.8c0-3.6,1-6.9,2.9-10c1.9-3,5-5.4,9.3-7.1c4.3-1.7,12.1-3,23.4-3.8v-3.3
		c0-5.6-2.8-8.4-8.3-8.4c-5.9,0-9.3,2.8-9.9,8.4L5.2,60c1-6.5,4.1-11.2,9.3-13.9c5.2-2.7,11-4.1,17.5-4.1c3.9,0,7.6,0.5,11.1,1.4
		c3.5,0.9,6.2,2.3,8.1,4.1c1.9,1.8,3.2,3.8,3.9,5.8c0.7,2,1,5.6,1,10.6V90C56.2,95,56.5,98.6,57.2,100.7z M39.2,73.2
		c-11.8,1.2-17.8,4.8-17.8,10.8c0,2,0.6,3.8,1.9,5.2c1.2,1.5,3,2.2,5.3,2.2c3,0,5.5-1.2,7.5-3.7c2-2.5,3-5.6,3-9.2V73.2z"/>
	<path id="XMLID_61_" class="st1" d="M89.3,56.4v24.3c0,3,0.5,5.1,1.4,6.1c0.9,1,3,1.5,6.4,1.5c1.6,0,3.3-0.1,5.4-0.2v12.6
		c-4.9,0.8-8.5,1.3-10.7,1.3c-7.1,0-12.1-1.4-15-4.1c-3-2.7-4.4-7.6-4.4-14.7V56.4h-9.1V43.2h10.1l1.4-17l14.6-1.1v18.1h12.4v13.2
		H89.3z"/>
	<path id="XMLID_63_" class="st1" d="M134.6,42c8.8,0,15.6,2.9,20.5,8.6c4.9,5.7,7.4,12.9,7.4,21.5c0,8.5-2.6,15.6-7.7,21.3
		c-5.1,5.7-11.9,8.5-20.3,8.5c-8.2,0-14.7-2.8-19.7-8.4c-4.9-5.6-7.4-12.8-7.4-21.6c0-6.1,1.1-11.3,3.3-15.6
		c2.2-4.3,5.3-7.7,9.1-10.3C123.8,43.3,128.7,42,134.6,42z M135,53.1c-3.2,0-5.6,1.2-7.3,3.7c-1.6,2.5-2.4,7.4-2.4,14.8
		c0,6.8,0.8,11.7,2.3,14.6s4,4.4,7.3,4.4c2.9,0,5.2-1.3,7-3.8c1.8-2.5,2.7-7.3,2.7-14.4c0-7.6-0.8-12.7-2.4-15.4
		C140.6,54.5,138.2,53.1,135,53.1z"/>
	<path id="XMLID_66_" class="st1" d="M255.4,100.7h-17V68.9c0-4.5-0.1-7.4-0.4-8.7c-0.3-1.3-1-2.5-2.1-3.4c-1.1-0.9-2.7-1.3-4.6-1.3
		c-1.9,0-3.8,0.7-5.7,2s-2.9,5.1-2.9,11.4v31.8h-17V68.9c0-4.6-0.2-7.6-0.6-8.9c-0.4-1.3-1.2-2.4-2.4-3.3c-1.2-0.8-2.6-1.3-4.4-1.3
		c-2.9,0-5.1,0.9-6.5,2.8c-1.4,1.8-2.1,5.4-2.1,10.7v31.8h-16.5V43.2h15.9V52c2.7-6.6,8.1-10,16.2-10c7.3,0,12.6,3.3,15.9,10
		c3.2-6.6,8.8-10,16.7-10c3.8,0,7.1,0.8,9.8,2.3c2.7,1.6,4.7,3.6,5.9,6.1c1.2,2.5,1.8,6.8,1.8,12.9V100.7z"/>
	<path id="XMLID_68_" class="st1" d="M286.3,21.4v17h-17v-17H286.3z M286.3,43.2v57.5h-17V43.2H286.3z"/>
	<path id="XMLID_71_" class="st1" d="M349.4,43.2v57.5h-15.7v-9.8c-3,7.3-8.6,11-17,11c-4.3,0-7.7-0.8-10-2.4s-4-3.8-5-6.6
		c-1-2.8-1.5-6.8-1.5-12.1V43.2h16.5v37.6c0,5.2,2.1,7.7,6.4,7.7c2.2,0,4-0.6,5.6-1.9c1.6-1.2,2.6-2.6,3-4c0.4-1.4,0.7-3.8,0.7-7.2
		V43.2H349.4z"/>
	<path id="XMLID_73_" class="st1" d="M445.6,100.7h-17V68.9c0-4.5-0.1-7.4-0.4-8.7c-0.3-1.3-1-2.5-2.1-3.4c-1.1-0.9-2.7-1.3-4.6-1.3
		c-1.9,0-3.8,0.7-5.7,2c-1.9,1.3-2.9,5.1-2.9,11.4v31.8h-17V68.9c0-4.6-0.2-7.6-0.6-8.9c-0.4-1.3-1.2-2.4-2.4-3.3
		c-1.2-0.8-2.6-1.3-4.4-1.3c-2.9,0-5.1,0.9-6.5,2.8c-1.4,1.8-2.1,5.4-2.1,10.7v31.8h-16.5V43.2h15.9V52c2.7-6.6,8.1-10,16.2-10
		c7.3,0,12.6,3.3,15.9,10c3.2-6.6,8.8-10,16.7-10c3.8,0,7.1,0.8,9.8,2.3c2.7,1.6,4.7,3.6,5.9,6.1c1.2,2.5,1.8,6.8,1.8,12.9V100.7z"
		/>
</g>
<g id="XMLID_1_">
</g>
<g id="XMLID_75_">
</g>
<g id="XMLID_76_">
</g>
<g id="XMLID_77_">
</g>
<g id="XMLID_78_">
</g>
<g id="XMLID_79_">
</g>
</svg>
